<svg width="96" height="96" xmlns="http://www.w3.org/2000/svg" xmlns:xlink="http://www.w3.org/1999/xlink" xml:space="preserve" overflow="hidden"><g transform="translate(-377 -307)"><path d="M425 361C421.7 361 419 358.3 419 355 419 351.7 421.7 349 425 349 428.3 349 431 351.7 431 355 431 358.3 428.3 361 425 361ZM459 353.7 452.8 351.8 437.6 347 442.5 337.5 433.1 342.4 428.2 327.1 426.2 320.9 425 317 423.7 321 421.8 327.2 417.1 342.4 407.6 337.5 412.5 346.9 397.3 351.7 391 353.6 387 354.9 391 356.2 397.1 358.2 412.4 363 407.5 372.4 416.9 367.5 421.7 382.7 423.6 388.9 424.9 392.9 426.2 388.9 428.2 382.7 433.1 367.4 442.5 372.3 437.5 362.9 452.7 358.1 458.9 356.1 462.9 354.8 459 353.7Z" stroke="#1D3557" fill="#A8DADC"/><path d="M451.9 362.6C450.9 366.1 449.2 369.4 446.9 372.3 445.6 374 444 375.5 442.4 376.9 439.5 379.2 436.2 380.9 432.6 381.9L432 384 430.6 388.5C437.2 387.4 443.3 384.4 448.2 379.8 448.8 379.2 449.4 378.6 450 378 454.5 373.1 457.5 367 458.6 360.5L454 362 451.9 362.6Z" stroke="#1D3557" fill="#A8DADC"/><path d="M432.7 328.1C436.2 329.1 439.5 330.8 442.3 333.1 444 334.4 445.5 336 446.9 337.7 449.2 340.6 450.9 343.8 451.9 347.4L454 348 458.5 349.4C457.4 342.9 454.4 336.8 449.9 331.9 449.3 331.3 448.7 330.7 448.1 330.1 443.2 325.6 437.2 322.6 430.6 321.5L432 326 432.7 328.1Z" stroke="#1D3557" fill="#A8DADC"/><path d="M398.1 347.2C399.1 343.7 400.8 340.4 403.1 337.5 404.4 335.8 406 334.3 407.7 332.9 410.6 330.6 413.8 329 417.3 328L418 326 419.4 321.5C412.9 322.6 406.8 325.5 401.9 330 401.3 330.6 400.7 331.2 400.1 331.8 395.6 336.7 392.5 342.8 391.4 349.3L395.9 347.9 398.1 347.2Z" stroke="#1D3557" fill="#A8DADC"/><path d="M417.3 381.9C413.8 380.9 410.5 379.2 407.6 376.9 405.9 375.6 404.4 374 403.1 372.4 400.8 369.5 399.1 366.2 398.1 362.7L396 362 391.5 360.6C392.6 367.2 395.6 373.3 400.1 378.1 400.7 378.7 401.3 379.3 401.9 379.9 406.8 384.4 412.9 387.4 419.4 388.5L417.9 384 417.3 381.9Z" stroke="#1D3557" fill="#A8DADC"/></g></svg>