<svg width="1352" height="344" xmlns="http://www.w3.org/2000/svg" xmlns:xlink="http://www.w3.org/1999/xlink" xml:space="preserve" overflow="hidden"><g transform="translate(-1296 -1040)"><path d="M2135.02 1194.96C2128.56 1194.96 2122.46 1196.65 2116.73 1200.05 2111 1203.44 2106.38 1208.26 2102.87 1214.52 2099.35 1220.77 2097.6 1227.98 2097.6 1236.13 2097.6 1245.25 2099.39 1252.9 2102.99 1259.08 2106.58 1265.25 2111.24 1269.84 2116.97 1272.82 2122.7 1275.81 2128.76 1277.3 2135.14 1277.3 2141.76 1277.3 2147.69 1275.73 2152.94 1272.58 2158.19 1269.43 2162.32 1264.75 2165.35 1258.53 2168.38 1252.32 2169.89 1244.85 2169.89 1236.13 2169.89 1227.98 2168.46 1220.79 2165.59 1214.58 2162.73 1208.36 2158.65 1203.54 2153.36 1200.11 2148.07 1196.67 2141.96 1194.96 2135.02 1194.96ZM2266.66 1194.84C2259.8 1194.84 2253.58 1196.47 2248.01 1199.74 2242.44 1203.01 2238.02 1207.78 2234.75 1214.03 2231.48 1220.29 2229.85 1227.65 2229.85 1236.13 2229.85 1244.61 2231.46 1251.95 2234.69 1258.17 2237.92 1264.39 2242.34 1269.13 2247.95 1272.4 2253.56 1275.67 2259.8 1277.3 2266.66 1277.3 2273.68 1277.3 2279.96 1275.69 2285.49 1272.46 2291.02 1269.23 2295.36 1264.53 2298.51 1258.35 2301.66 1252.18 2303.23 1244.77 2303.23 1236.13 2303.23 1227.57 2301.64 1220.19 2298.45 1213.97 2295.26 1207.75 2290.88 1203.01 2285.31 1199.74 2279.74 1196.47 2273.52 1194.84 2266.66 1194.84ZM1865.96 1194.72C1859.26 1194.72 1853.29 1196.35 1848.04 1199.62 1842.8 1202.89 1838.7 1207.63 1835.75 1213.85 1832.81 1220.07 1831.33 1227.45 1831.33 1236.01 1831.33 1244.57 1832.77 1251.95 1835.63 1258.17 1838.5 1264.39 1842.51 1269.13 1847.68 1272.4 1852.85 1275.67 1858.74 1277.3 1865.36 1277.3 1872.63 1277.3 1879.12 1275.67 1884.86 1272.4 1890.59 1269.13 1895.09 1264.39 1898.36 1258.17 1901.63 1251.95 1903.26 1244.57 1903.26 1236.01 1903.26 1227.53 1901.63 1220.17 1898.36 1213.91 1895.09 1207.65 1890.61 1202.89 1884.92 1199.62 1879.22 1196.35 1872.91 1194.72 1865.96 1194.72ZM2353.49 1180.19 2373.47 1180.19 2373.47 1292.44 2353.49 1292.44ZM1946.48 1180.19 1967.79 1180.19 2001.09 1271.61 2001.57 1271.61 2033.91 1180.19 2055.34 1180.19 2006.78 1304.43C2002.18 1316.3 1996.57 1324.51 1989.95 1329.07 1983.33 1333.63 1975.3 1335.91 1965.85 1335.91 1963.27 1335.91 1960.54 1335.69 1957.68 1335.25 1954.81 1334.8 1952.21 1334.18 1949.87 1333.37L1954.83 1316.9C1957.01 1317.55 1958.85 1317.99 1960.34 1318.23 1961.84 1318.47 1963.47 1318.6 1965.25 1318.6 1970.9 1318.6 1975.64 1317.16 1979.47 1314.3 1983.31 1311.43 1986.4 1306.85 1988.74 1300.55L1991.4 1293.41ZM2465.75 1177.89C2474.06 1177.89 2481.45 1179.6 2487.91 1183.03 2494.36 1186.46 2499.41 1191.51 2503.04 1198.17 2506.68 1204.83 2508.49 1212.8 2508.49 1222.08L2508.49 1292.44 2488.39 1292.44 2488.39 1226.69C2488.39 1216.35 2486.05 1208.54 2481.37 1203.25 2476.69 1197.97 2470.15 1195.32 2461.75 1195.32 2456.66 1195.32 2451.8 1196.69 2447.16 1199.44 2442.52 1202.18 2438.72 1206.36 2435.78 1211.97 2432.83 1217.58 2431.36 1224.43 2431.36 1232.5L2431.36 1292.44 2411.38 1292.44 2411.38 1180.19 2428.69 1180.19 2429.42 1199.56 2429.78 1199.56C2433.66 1192.78 2438.66 1187.47 2444.8 1183.64 2450.93 1179.8 2457.92 1177.89 2465.75 1177.89ZM2266.66 1177.89C2277.16 1177.89 2286.7 1180.31 2295.3 1185.15 2303.9 1189.99 2310.66 1196.84 2315.58 1205.68 2320.51 1214.52 2322.97 1224.67 2322.97 1236.13 2322.97 1247.59 2320.51 1257.73 2315.58 1266.53 2310.66 1275.33 2303.92 1282.15 2295.36 1286.99 2286.8 1291.83 2277.24 1294.26 2266.66 1294.26 2256.08 1294.26 2246.5 1291.83 2237.9 1286.99 2229.3 1282.15 2222.52 1275.33 2217.56 1266.53 2212.59 1257.73 2210.11 1247.59 2210.11 1236.13 2210.11 1224.67 2212.59 1214.52 2217.56 1205.68 2222.52 1196.84 2229.3 1189.99 2237.9 1185.15 2246.5 1180.31 2256.08 1177.89 2266.66 1177.89ZM2137.8 1177.89C2147.17 1177.89 2155.86 1180.29 2163.9 1185.09 2171.93 1189.89 2178.37 1196.72 2183.21 1205.55 2188.05 1214.39 2190.48 1224.59 2190.48 1236.13 2190.48 1247.92 2188.05 1258.19 2183.21 1266.95 2178.37 1275.71 2171.91 1282.43 2163.84 1287.11 2155.76 1291.79 2147 1294.14 2137.56 1294.14 2129.41 1294.14 2121.7 1292.42 2114.43 1288.99 2107.16 1285.56 2101.55 1280.65 2097.6 1274.28L2097.36 1274.28 2097.36 1339.3 2077.38 1339.3 2077.38 1180.19 2094.93 1180.19 2095.9 1201.01 2096.14 1201.01C2098.49 1196.74 2101.74 1192.84 2105.89 1189.33 2110.05 1185.82 2114.89 1183.03 2120.42 1180.97 2125.95 1178.91 2131.75 1177.89 2137.8 1177.89ZM1863.3 1177.76C1871.94 1177.76 1879.83 1179.7 1886.97 1183.58 1894.12 1187.45 1899.59 1192.21 1903.38 1197.87L1903.87 1197.87 1904.47 1180.19 1923.36 1180.19 1923.36 1292.44 1905.8 1292.56 1904.47 1272.34 1903.99 1272.34C1899.95 1278.88 1894.54 1284.16 1887.76 1288.2 1880.98 1292.24 1872.99 1294.26 1863.79 1294.26 1853.61 1294.26 1844.55 1291.87 1836.6 1287.11 1828.65 1282.35 1822.41 1275.57 1817.89 1266.77 1813.37 1257.97 1811.11 1247.72 1811.11 1236.01 1811.11 1224.47 1813.43 1214.27 1818.07 1205.43 1822.71 1196.59 1829.01 1189.77 1836.96 1184.97 1844.91 1180.17 1853.69 1177.76 1863.3 1177.76ZM2547.97 1151.97 2567.59 1151.97 2567.59 1180.19 2599.68 1180.19 2599.68 1195.93 2567.59 1195.93 2567.59 1260.23C2567.59 1267.01 2568.62 1271.67 2570.68 1274.22 2572.74 1276.76 2576.11 1278.03 2580.79 1278.03 2586.2 1278.03 2591.53 1276.86 2596.77 1274.52L2601.62 1289.41C2598.71 1290.78 2595.18 1291.96 2591.02 1292.92 2586.86 1293.89 2583.01 1294.38 2579.46 1294.38 2568.64 1294.38 2560.69 1291.53 2555.6 1285.84 2550.52 1280.15 2547.97 1271.33 2547.97 1259.38L2547.97 1195.93 2529.69 1195.93 2529.69 1180.19 2547.97 1180.19ZM1600.29 1144.1 1621.85 1144.1 1655.27 1270.76 1656.48 1270.76 1690.99 1144.1 1714.12 1144.1 1747.06 1270.52 1748.03 1270.52 1781.57 1144.1 1802.76 1144.1 1759.29 1293.17 1735.19 1293.17 1703.1 1170.86 1702.25 1170.86 1668.83 1293.17 1643.77 1293.17ZM2363.54 1128.48C2367.82 1128.48 2371.25 1129.77 2373.84 1132.35 2376.42 1134.94 2377.71 1138.33 2377.71 1142.53 2377.71 1146.89 2376.44 1150.3 2373.9 1152.76 2371.35 1155.22 2367.9 1156.45 2363.54 1156.45 2359.1 1156.45 2355.59 1155.24 2353.01 1152.82 2350.42 1150.4 2349.13 1146.97 2349.13 1142.53 2349.13 1138.17 2350.4 1134.74 2352.95 1132.23 2355.49 1129.73 2359.02 1128.48 2363.54 1128.48Z" stroke="#1D3557" stroke-width="5" stroke-linejoin="round" stroke-miterlimit="10" fill="#457B9D" fill-rule="evenodd"/><text fill="#000000" fill-opacity="0" font-family="Arial,Arial_MSFontService,sans-serif" font-size="210.824" x="1600.29" y="1312.95">Waypoint</text><g><g><g><path d="M1461 1239.62C1449.66 1239.62 1440.37 1230.34 1440.37 1219 1440.37 1207.66 1449.66 1198.37 1461 1198.37 1472.34 1198.37 1481.62 1207.66 1481.62 1219 1481.62 1230.34 1472.34 1239.62 1461 1239.62ZM1577.87 1214.53 1556.56 1208 1504.31 1191.5 1521.16 1158.84 1488.84 1175.69 1472 1123.09 1465.12 1101.78 1461 1088.37 1456.53 1102.12 1450 1123.44 1433.84 1175.69 1401.19 1158.84 1418.03 1191.16 1365.78 1207.66 1344.12 1214.19 1330.37 1218.66 1344.12 1223.12 1365.09 1230 1417.69 1246.5 1400.84 1278.81 1433.16 1261.97 1449.66 1314.22 1456.19 1335.53 1460.66 1349.28 1465.12 1335.53 1472 1314.22 1488.84 1261.62 1521.16 1278.47 1503.97 1246.16 1556.22 1229.66 1577.53 1222.78 1591.28 1218.31 1577.87 1214.53Z" stroke="#1D3557" stroke-width="3.4375" fill="#A8DADC"/><path d="M1553.47 1245.12C1550.03 1257.16 1544.19 1268.5 1536.28 1278.47 1531.81 1284.31 1526.31 1289.47 1520.81 1294.28 1510.84 1302.19 1499.5 1308.03 1487.12 1311.47L1485.06 1318.69 1480.25 1334.16C1502.94 1330.37 1523.91 1320.06 1540.75 1304.25 1542.81 1302.19 1544.87 1300.12 1546.94 1298.06 1562.41 1281.22 1572.72 1260.25 1576.5 1237.91L1560.69 1243.06 1553.47 1245.12Z" stroke="#1D3557" stroke-width="3.4375" fill="#A8DADC"/><path d="M1487.47 1126.53C1499.5 1129.97 1510.84 1135.81 1520.47 1143.72 1526.31 1148.19 1531.47 1153.69 1536.28 1159.53 1544.19 1169.5 1550.03 1180.5 1553.47 1192.87L1560.69 1194.94 1576.16 1199.75C1572.37 1177.41 1562.06 1156.44 1546.59 1139.59 1544.53 1137.53 1542.47 1135.47 1540.41 1133.41 1523.56 1117.94 1502.94 1107.62 1480.25 1103.84L1485.06 1119.31 1487.47 1126.53Z" stroke="#1D3557" stroke-width="3.4375" fill="#A8DADC"/><path d="M1368.53 1192.19C1371.97 1180.16 1377.81 1168.81 1385.72 1158.84 1390.19 1153 1395.69 1147.84 1401.53 1143.03 1411.5 1135.12 1422.5 1129.62 1434.53 1126.19L1436.94 1119.31 1441.75 1103.84C1419.41 1107.62 1398.44 1117.59 1381.59 1133.06 1379.53 1135.12 1377.47 1137.19 1375.41 1139.25 1359.94 1156.09 1349.28 1177.06 1345.5 1199.41L1360.97 1194.59 1368.53 1192.19Z" stroke="#1D3557" stroke-width="3.4375" fill="#A8DADC"/><path d="M1434.53 1311.47C1422.5 1308.03 1411.16 1302.19 1401.19 1294.28 1395.34 1289.81 1390.19 1284.31 1385.72 1278.81 1377.81 1268.84 1371.97 1257.5 1368.53 1245.47L1361.31 1243.06 1345.84 1238.25C1349.62 1260.94 1359.94 1281.91 1375.41 1298.41 1377.47 1300.47 1379.53 1302.53 1381.59 1304.59 1398.44 1320.06 1419.41 1330.37 1441.75 1334.16L1436.59 1318.69 1434.53 1311.47Z" stroke="#1D3557" stroke-width="3.4375" fill="#A8DADC"/></g></g></g></g></svg>